# xmcd
#
# Track frame offsets: 
#        150
#        14653
#        31841
#        49471
#        80670
#        95590
#        110482
#        127829
#        145011
#        170472
#        184091
#        208098
#        221740
#        241809
#        260175
#        272963
#
# Disc length: 3802 seconds
#
# Revision: 0
# Processed by: cddbd v1.5.2PL0 Copyright (c) Steve Scherf et al.
# Submitted via: ExactAudioCopyFreeDBPlugin 1.0
#
DISCID=f10ed810
DTITLE=Mey, Reinhard  - Lieder von Freunden
DYEAR=2015
DGENRE=Folk
TTITLE0=Bitte gib mir Feuer
TTITLE1=Que Sont Devenues Les Fleurs
TTITLE2=Zauberland
TTITLE3=Wölfe mitten im Mai
TTITLE4=Du bist nicht allein
TTITLE5=Ma Vie
TTITLE6=An Vater
TTITLE7=The Book Of Love
TTITLE8=Emily Anne
TTITLE9=Willst du dein Herz mir schenken
TTITLE10=Die zwölf Weihnachtstage
TTITLE11=Abend
TTITLE12=Jalalabad
TTITLE13=Das alte Fahrrad
TTITLE14=Schutzengerl
TTITLE15=Le Déserteur
EXTD=
EXTT0=
EXTT1=
EXTT2=
EXTT3=
EXTT4=
EXTT5=
EXTT6=
EXTT7=
EXTT8=
EXTT9=
EXTT10=
EXTT11=
EXTT12=
EXTT13=
EXTT14=
EXTT15=
PLAYORDER=
